<svg xmlns="http://www.w3.org/2000/svg" viewBox="0 0 486 108"><g fill="#231f20"><path d="M134.848 4.367h22.416v44.539L198.6 4.367h27.073l-41.482 43.229 43.374 58.657h-26.927L169.053 62.88l-11.79 12.226v31.147h-22.415V4.367z"/><path d="M215.653 67.682v-.29c0-22.416 18.049-40.61 42.356-40.61 24.162 0 42.065 17.903 42.065 40.318v.292c0 22.415-18.05 40.608-42.356 40.608-24.162 0-42.065-17.903-42.065-40.318zm62.588 0v-.29c0-11.5-8.297-21.543-20.523-21.543-12.663 0-20.232 9.752-20.232 21.251v.292c0 11.498 8.296 21.54 20.523 21.54 12.663 0 20.232-9.75 20.232-21.25z"/><path d="M306.18 84.13V47.16h-9.315V28.236h9.316V8.297h22.124v19.94h18.34V47.16h-18.34v33.332c0 5.094 2.183 7.57 7.132 7.57 4.076 0 7.715-1.02 10.916-2.767v17.758c-4.657 2.765-10.043 4.512-17.466 4.512-13.536 0-22.706-5.386-22.706-23.434zM352.996 0h22.124v106.253h-22.124V0zm30.121 0h23.287v19.65h-23.287V0zm.582 28.237h22.124v78.016h-22.124V28.237zm30.541 0h22.123V39.3c5.095-6.55 11.645-12.517 22.852-12.517 16.739 0 26.49 11.062 26.49 28.965v50.506h-22.123v-43.52c0-10.479-4.95-15.865-13.391-15.865-8.443 0-13.828 5.386-13.828 15.865v43.52H414.24V28.237z"/></g><linearGradient id="a" gradientUnits="userSpaceOnUse" x1="-11.379" y1="92.369" x2="70.302" y2="10.687"><stop offset=".108" stop-color="#c757bc"/><stop offset=".214" stop-color="#d0609a"/><stop offset=".425" stop-color="#e1725c"/><stop offset=".605" stop-color="#ee7e2f"/><stop offset=".743" stop-color="#f58613"/><stop offset=".823" stop-color="#f88909"/></linearGradient><path fill="url(#a)" d="M51.313 4.316L.166 58.102v48.083l51.072-51.162 50.797-50.707z"/><linearGradient id="b" gradientUnits="userSpaceOnUse" x1="36.096" y1="121.145" x2="79.126" y2="78.116"><stop offset=".097" stop-color="#0095d5"/><stop offset=".301" stop-color="#238ad9"/><stop offset=".621" stop-color="#557bde"/><stop offset=".864" stop-color="#7472e2"/><stop offset="1" stop-color="#806ee3"/></linearGradient><path fill="url(#b)" d="M.167 106.185l51.072-51.162 50.797 51.162z"/><linearGradient id="c" gradientUnits="userSpaceOnUse" x1="-4.506" y1="35.881" x2="33.105" y2="-1.73"><stop offset=".097" stop-color="#0095d5"/><stop offset=".301" stop-color="#238ad9"/><stop offset=".621" stop-color="#557bde"/><stop offset=".864" stop-color="#7472e2"/><stop offset="1" stop-color="#806ee3"/></linearGradient><path fill="url(#c)" d="M.167 4.316h51.146L.167 58.102z"/></svg>